<svg id="Layer_1" data-name="Layer 1" xmlns="http://www.w3.org/2000/svg" viewBox="0 0 1366 768"><path d="M1063.29-8.4c-8.74,55,1.49,109.78,6.84,164.5,2.67,27.33,3.57,54.62,1.4,82-2.15,27.22-6.59,54.18-10.91,81.12-4.38,27.23-8.68,54.53-10.61,82.07a406.54,406.54,0,0,0,2.15,77.67c6.21,50.87,20,100.29,32.35,149.9,12.16,48.84,23.08,98.53,22.75,149.12q-.06,9.56-.67,19.08c-.48,7.72,11.52,7.69,12,0,3.14-50.56-5.72-100.84-17.28-149.88-11.68-49.53-26.19-98.48-34.36-148.78a424.34,424.34,0,0,1-5.9-75.74c.5-27.28,4-54.38,8.14-81.3,8.36-54.17,18.29-107.94,14.77-163-3.47-54.37-15.47-108.47-11.45-163.16.5-6.85,1.27-13.66,2.35-20.44.51-3.22-.83-6.42-4.19-7.38-2.85-.81-6.88,1-7.38,4.19Z"/><path d="M367.2,3a1.5,1.5,0,0,0,0-3,1.5,1.5,0,0,0,0,3Z"/><path d="M362.58-9.65c-18,18.7-21.54,44.46-22.33,69.34-.85,26.65,2.08,53.22,2.84,79.84a284.23,284.23,0,0,1-1.3,40.32c-1.48,13-4.74,25.53-8.7,37.92s-8.38,24.4-11.66,36.87a183.06,183.06,0,0,0-5.74,39.29c-1.08,27.21,3.21,54.32,7.72,81.06,4.54,26.93,8.89,53.86,11.8,81,5.77,53.81,6.93,108.65-1.88,162.21-4.37,26.53-11.68,52.51-15.42,79.15-3.88,27.65-2.84,55.34-.27,83.06.63,6.88,1.34,13.75,2.05,20.62.34,3.25,2.52,6,6,6,3,0,6.33-2.78,6-6-2.8-27.16-5.61-54.49-4-81.83,1.57-27,8.48-53.11,13.84-79.47C352.24,587,353.66,533,349.4,479.36c-2.13-26.76-5.59-53.41-9.81-79.92s-9.69-53.14-11.47-80.09a219.46,219.46,0,0,1,.6-39.21c1.47-13,4.93-25.58,8.94-38s8.39-24.4,11.58-36.9A199.47,199.47,0,0,0,354.86,167c1.46-26.58-1.33-53.13-2.38-79.67a335.21,335.21,0,0,1,.39-39.08c.92-11.91,2.73-24.28,8.1-35.08a57,57,0,0,1,10.1-14.31c5.35-5.57-3.13-14.07-8.49-8.49Z"/></svg>