<svg id="Layer_1" data-name="Layer 1" xmlns="http://www.w3.org/2000/svg" viewBox="0 0 1366 768"><path d="M1074.86,799.47c-8.66-54.44,2.35-109.41,7.49-163.62,2.6-27.34,3.29-54.61,1-82s-6.7-54.28-11-81.27-8.59-53.92-10.4-81.16a407.76,407.76,0,0,1,2.42-77.55c6.31-50.46,20.43-99.54,32.61-148.78,12-48.7,22.65-98.42,22.32-148.84q-.06-9.55-.67-19.08c-.47-7.68-12.48-7.73-12,0,3.16,50.77-5.94,101-17.68,150.16-11.8,49.49-26.23,98.47-34.09,148.81-4,25.46-6.32,51.18-5.74,77,.62,27.32,4.17,54.47,8.31,81.45s9,53.9,12.12,81.05a450.37,450.37,0,0,1,2.3,82.58c-3.72,54.57-15.71,109-11.06,163.89.58,6.89,1.45,13.76,2.54,20.59.5,3.19,4.5,5,7.38,4.19,3.4-1,4.7-4.16,4.19-7.38Z"/><path d="M367.2,3a1.5,1.5,0,0,0,0-3,1.5,1.5,0,0,0,0,3Z"/><path d="M371.07,795.42c-17.38-18.09-18.81-44.75-19-68.51-.18-26.65,2.84-53.19,3.14-79.82a261.45,261.45,0,0,0-2.35-39.55c-1.8-12.66-5.2-24.93-9.16-37.07s-8.39-24.4-11.47-36.92a170.62,170.62,0,0,1-4.73-39.37c-.27-26.72,4.28-53.15,8.74-79.4,4.54-26.7,8.57-53.48,11.34-80.42,5.47-53.21,6.05-107.07-2.47-160-4.27-26.55-11.57-52.53-15.45-79.15-3.93-27-2.56-54.34-.06-81.4C330.27,6.94,331,.07,331.69-6.8c.34-3.25-3-6-6-6-3.52,0-5.67,2.79-6,6-2.85,27.68-5.72,55.56-3.92,83.42,1.74,27,8.43,53.17,13.85,79.55,10.95,53.27,12,107.78,7.52,161.85-2.27,27.24-5.92,54.34-10.37,81.31s-9.68,53.73-11,81a212.89,212.89,0,0,0,1.71,40c1.83,12.94,5.42,25.44,9.49,37.83s8.38,24.4,11.37,37a193.82,193.82,0,0,1,4.78,39.8c.7,26.63-2.26,53.16-2.93,79.75-.62,24.74-.66,52.75,11.67,75a69.23,69.23,0,0,0,10.68,14.27c5.36,5.58,13.84-2.91,8.49-8.49Z"/></svg>