<svg id="Layer_1" data-name="Layer 1" xmlns="http://www.w3.org/2000/svg" viewBox="0 0 1366 768"><path d="M371.19,802.66c8.74-54.95-1.5-109.78-6.84-164.5-2.68-27.33-3.57-54.62-1.41-82,2.16-27.22,6.59-54.18,10.92-81.12,4.37-27.23,8.68-54.53,10.6-82.07a406.54,406.54,0,0,0-2.14-77.67c-6.21-50.87-20-100.29-32.35-149.9-12.16-48.84-23.09-98.53-22.75-149.12q.06-9.55.66-19.08c.48-7.72-11.52-7.69-12,0C312.74,47.74,321.6,98,333.17,147.05c11.68,49.53,26.19,98.48,34.36,148.78a425.27,425.27,0,0,1,5.9,75.74c-.51,27.28-4,54.38-8.14,81.3-8.36,54.17-18.29,107.94-14.78,163C354,670.24,366,724.34,362,779c-.5,6.85-1.27,13.66-2.35,20.44-.51,3.22.83,6.42,4.19,7.38,2.85.81,6.87-1,7.38-4.19Z"/><path d="M1071.89,803.91c18-18.7,21.54-44.46,22.34-69.34.84-26.65-2.08-53.22-2.84-79.84a282.76,282.76,0,0,1,1.3-40.32c1.47-12.95,4.74-25.53,8.7-37.92s8.38-24.4,11.66-36.87a183.06,183.06,0,0,0,5.74-39.29c1.07-27.2-3.22-54.32-7.72-81.06-4.54-26.93-8.89-53.86-11.81-81-5.76-53.81-6.92-108.65,1.89-162.21,4.36-26.53,11.68-52.51,15.41-79.15,3.88-27.65,2.84-55.34.28-83.06-.64-6.88-1.35-13.75-2-20.62-.34-3.25-2.52-6-6-6-3,0-6.34,2.78-6,6,2.8,27.16,5.61,54.49,4,81.83-1.57,27-8.48,53.11-13.84,79.47-10.73,52.8-12.16,106.81-7.89,160.4,2.13,26.76,5.59,53.41,9.8,79.92s9.69,53.14,11.48,80.09a218.54,218.54,0,0,1-.61,39.21c-1.47,13-4.93,25.58-8.93,38s-8.39,24.4-11.58,36.9a199.47,199.47,0,0,0-5.62,38.28c-1.46,26.58,1.33,53.13,2.37,79.67a333,333,0,0,1-.38,39.08c-.93,11.91-2.74,24.28-8.1,35.08a57,57,0,0,1-10.1,14.31c-5.35,5.57,3.12,14.07,8.48,8.49Z"/></svg>