<svg xmlns="http://www.w3.org/2000/svg" viewBox="0 0 1366 768"><g id="Layer_1" data-name="Layer 1"><path d="M1074.86,799.47c-8.66-54.44,2.35-109.41,7.49-163.62,2.6-27.34,3.29-54.61,1-82s-6.7-54.28-11-81.27-8.59-53.92-10.4-81.16a407.76,407.76,0,0,1,2.42-77.55c6.31-50.46,20.43-99.54,32.61-148.78,12-48.7,22.65-98.42,22.32-148.84q-.06-9.55-.67-19.08c-.47-7.68-12.48-7.73-12,0,3.16,50.77-5.94,101-17.68,150.16-11.8,49.49-26.23,98.47-34.09,148.81-4,25.46-6.32,51.18-5.74,77,.62,27.32,4.17,54.47,8.31,81.45s9,53.9,12.12,81.05a450.37,450.37,0,0,1,2.3,82.58c-3.72,54.57-15.71,109-11.06,163.89.58,6.89,1.45,13.76,2.54,20.59.5,3.19,4.5,5,7.38,4.19,3.4-1,4.7-4.16,4.19-7.38Z"/><path d="M367.2,3a1.5,1.5,0,0,0,0-3,1.5,1.5,0,0,0,0,3Z"/><path d="M371.07,795.42c-17.38-18.09-18.81-44.75-19-68.51-.18-26.65,2.84-53.19,3.14-79.82a261.45,261.45,0,0,0-2.35-39.55c-1.8-12.66-5.2-24.93-9.16-37.07s-8.39-24.4-11.47-36.92a170.62,170.62,0,0,1-4.73-39.37c-.27-26.72,4.28-53.15,8.74-79.4,4.54-26.7,8.57-53.48,11.34-80.42,5.47-53.21,6.05-107.07-2.47-160-4.27-26.55-11.57-52.53-15.45-79.15-3.93-27-2.56-54.34-.06-81.4C330.27,6.94,331,.07,331.69-6.8c.34-3.25-3-6-6-6-3.52,0-5.67,2.79-6,6-2.85,27.68-5.72,55.56-3.92,83.42,1.74,27,8.43,53.17,13.85,79.55,10.95,53.27,12,107.78,7.52,161.85-2.27,27.24-5.92,54.34-10.37,81.31s-9.68,53.73-11,81a212.89,212.89,0,0,0,1.71,40c1.83,12.94,5.42,25.44,9.49,37.83s8.38,24.4,11.37,37a193.82,193.82,0,0,1,4.78,39.8c.7,26.63-2.26,53.16-2.93,79.75-.62,24.74-.66,52.75,11.67,75a69.23,69.23,0,0,0,10.68,14.27c5.36,5.58,13.84-2.91,8.49-8.49Z"/></g><g id="Layer_2" data-name="Layer 2"><path d="M3.19,15.47c1.16-.62,2.33-1.22,3.52-1.78l1.92-.88.4-.17c-.54.23.84-.33,1-.38A77.35,77.35,0,0,1,17.7,9.7c2.71-.76,5.47-1.37,8.24-1.86l1.79-.29c.26,0,2.06-.29,1.1-.17,1.41-.18,2.82-.32,4.23-.44a117.88,117.88,0,0,1,17.12-.15c2.76.17,5.52.43,8.27.76.28,0,2.06.27,1.14.14L61.41,8q2.28.34,4.53.75c24.37,4.41,47.43,13.84,71.31,20.12,12.21,3.22,24.9,5.71,37.58,5.3a76.37,76.37,0,0,0,18.94-2.93,137.32,137.32,0,0,0,17.79-6.93c11.12-5,20.75-9.46,32.23-13.53A300.76,300.76,0,0,1,278.26.82q8.75-2,17.61-3.41l4.19-.65,2.26-.32,1-.14.67-.09c2.91-.37,5.83-.71,8.75-1a300,300,0,0,1,35.84-1.43c3.05.06,6.09.18,9.13.33a6,6,0,0,0,6-6,6.13,6.13,0,0,0-6-6A306.61,306.61,0,0,0,215,9.55c-11,5-20.8,10.07-33.07,12-1.1.17.7-.08-.4.06l-1,.12-2.33.21c-1.56.12-3.13.19-4.69.21a89.41,89.41,0,0,1-9.4-.36c-3.25-.29-5-.53-8.12-1.08s-6.22-1.18-9.3-1.9C122.26,13.11,99,3.39,74.42-1.82,52-6.59,27.33-7.72,5.68,1.14a89.54,89.54,0,0,0-8.55,4A6.06,6.06,0,0,0-5,13.32a6.13,6.13,0,0,0,8.21,2.15Z"/><path d="M1378.44,2.91c-18.6-5.23-38.09-6.39-57.31-5.27-19.62,1.14-39.05,4.41-58.43,7.5-4.77.76-9.53,1.51-14.3,2.22q-3.57.54-7.16,1l-1.85.25-.53.07-3.71.47c-9.58,1.19-19.21,2.08-28.87,2.37a202.69,202.69,0,0,1-29.35-1.19c-1.18-.13-2.36-.28-3.55-.43-1-.13.92.13,0,0l-.81-.12-1.91-.28Q1166.81,9,1163,8.25c-4.88-.9-9.73-1.95-14.54-3.12-19.57-4.76-38.59-11.48-57.4-18.62-2.32-.88-4.65-1.77-7-2.67-2.94-1.13-6.71,1.25-7.38,4.19-.79,3.44,1,6.18,4.19,7.39,18.78,7.22,37.7,14.21,57.15,19.43s39.72,8.67,60,8.81c19.63.13,39.17-2.5,58.53-5.49,9.61-1.48,19.2-3.08,28.82-4.53q3.55-.54,7.12-1l1.84-.26.51-.07c1.32-.18,2.63-.35,3.95-.51,4.71-.59,9.43-1.11,14.16-1.53a232.13,232.13,0,0,1,28.4-.87q7,.25,13.94,1.07l1,.13.23,0,.23,0,1,.15c1.2.18,2.39.37,3.59.58q3.46.6,6.9,1.38c2.31.52,4.6,1.11,6.88,1.75a6.06,6.06,0,0,0,7.38-4.19,6.11,6.11,0,0,0-4.19-7.38Z"/></g></svg>