<svg xmlns:svg="http://www.w3.org/2000/svg" xmlns="http://www.w3.org/2000/svg" version="1.1" width="210" height="210"><link xmlns="" type="text/css" id="dark-mode" rel="stylesheet" href=""/><style xmlns="" type="text/css" id="dark-mode-custom-style"/>
	<g id="background">
		<rect width="1080" height="1080" fill="#1D163E"/>
	</g>
	<g id="polkadots" transform="scale(100,100)">
		<circle cx="0" cy="0" r="0.3" fill="#FFFFFC"/>
		<circle cx="2" cy="0" r="0.3" fill="#FFFFFC"/>
		<circle cx="4" cy="0" r="0.3" fill="#FFFFFC"/>
		<circle cx="6" cy="0" r="0.3" fill="#FFFFFC"/>
		<circle cx="1" cy="1" r="0.3" fill="#FFFFFC"/>
		<circle cx="3" cy="1" r="0.3" fill="#FFFFFC"/>
		<circle cx="5" cy="1" r="0.3" fill="#FFFFFC"/>
		<circle cx="7" cy="1" r="0.3" fill="#FFFFFC"/>
		<circle cx="0" cy="2" r="0.3" fill="#FFFFFC"/>
		<circle cx="2" cy="2" r="0.3" fill="#FFFFFC"/>
		<circle cx="4" cy="2" r="0.3" fill="#FFFFFC"/>
		<circle cx="6" cy="2" r="0.3" fill="#FFFFFC"/>
		<circle cx="1" cy="3" r="0.3" fill="#FFFFFC"/>
		<circle cx="3" cy="3" r="0.3" fill="#FFFFFC"/>
		<circle cx="5" cy="3" r="0.3" fill="#FFFFFC"/>
		<circle cx="7" cy="3" r="0.3" fill="#FFFFFC"/>
		<circle cx="0" cy="4" r="0.3" fill="#FFFFFC"/>
		<circle cx="2" cy="4" r="0.3" fill="#FFFFFC"/>
		<circle cx="4" cy="4" r="0.3" fill="#FFFFFC"/>
		<circle cx="6" cy="4" r="0.3" fill="#FFFFFC"/>
		<circle cx="1" cy="5" r="0.3" fill="#FFFFFC"/>
		<circle cx="3" cy="5" r="0.3" fill="#FFFFFC"/>
		<circle cx="5" cy="5" r="0.3" fill="#FFFFFC"/>
		<circle cx="7" cy="5" r="0.3" fill="#FFFFFC"/>
		<circle cx="0" cy="6" r="0.3" fill="#FFFFFC"/>
		<circle cx="2" cy="6" r="0.3" fill="#FFFFFC"/>
		<circle cx="4" cy="6" r="0.3" fill="#FFFFFC"/>
		<circle cx="6" cy="6" r="0.3" fill="#FFFFFC"/>
		<circle cx="1" cy="7" r="0.3" fill="#FFFFFC"/>
		<circle cx="3" cy="7" r="0.3" fill="#FFFFFC"/>
		<circle cx="5" cy="7" r="0.3" fill="#FFFFFC"/>
		<circle cx="7" cy="7" r="0.3" fill="#FFFFFC"/>
				<circle cx="0" cy="0" r="0.3" fill="#FFFFFC"/>
		<circle cx="2" cy="0" r="0.3" fill="#FFFFFC"/>
		<circle cx="4" cy="0" r="0.3" fill="#FFFFFC"/>
		<circle cx="6" cy="0" r="0.3" fill="#FFFFFC"/>
		<circle cx="1" cy="1" r="0.3" fill="#FFFFFC"/>
		<circle cx="3" cy="1" r="0.3" fill="#FFFFFC"/>
		<circle cx="5" cy="1" r="0.3" fill="#FFFFFC"/>
		<circle cx="7" cy="1" r="0.3" fill="#FFFFFC"/>
		<circle cx="0" cy="2" r="0.3" fill="#FFFFFC"/>
		<circle cx="2" cy="2" r="0.3" fill="#FFFFFC"/>
		<circle cx="4" cy="2" r="0.3" fill="#FFFFFC"/>
		<circle cx="6" cy="2" r="0.3" fill="#FFFFFC"/>
		<circle cx="1" cy="3" r="0.3" fill="#FFFFFC"/>
		<circle cx="3" cy="3" r="0.3" fill="#FFFFFC"/>
		<circle cx="5" cy="3" r="0.3" fill="#FFFFFC"/>
		<circle cx="7" cy="3" r="0.3" fill="#FFFFFC"/>
		<circle cx="0" cy="4" r="0.3" fill="#FFFFFC"/>
		<circle cx="2" cy="4" r="0.3" fill="#FFFFFC"/>
		<circle cx="4" cy="4" r="0.3" fill="#FFFFFC"/>
		<circle cx="6" cy="4" r="0.3" fill="#FFFFFC"/>
		<circle cx="1" cy="5" r="0.3" fill="#FFFFFC"/>
		<circle cx="3" cy="5" r="0.3" fill="#FFFFFC"/>
		<circle cx="5" cy="5" r="0.3" fill="#FFFFFC"/>
		<circle cx="7" cy="5" r="0.3" fill="#FFFFFC"/>
		<circle cx="0" cy="6" r="0.3" fill="#FFFFFC"/>
		<circle cx="2" cy="6" r="0.3" fill="#FFFFFC"/>
		<circle cx="4" cy="6" r="0.3" fill="#FFFFFC"/>
		<circle cx="6" cy="6" r="0.3" fill="#FFFFFC"/>
		<circle cx="1" cy="7" r="0.3" fill="#FFFFFC"/>
		<circle cx="3" cy="7" r="0.3" fill="#FFFFFC"/>
		<circle cx="5" cy="7" r="0.3" fill="#FFFFFC"/>
		<circle cx="7" cy="7" r="0.3" fill="#FFFFFC"/>
				<circle cx="0" cy="0" r="0.3" fill="#FFFFFC"/>
		<circle cx="2" cy="0" r="0.3" fill="#FFFFFC"/>
		<circle cx="4" cy="0" r="0.3" fill="#FFFFFC"/>
		<circle cx="6" cy="0" r="0.3" fill="#FFFFFC"/>
		<circle cx="1" cy="1" r="0.3" fill="#FFFFFC"/>
		<circle cx="3" cy="1" r="0.3" fill="#FFFFFC"/>
		<circle cx="5" cy="1" r="0.3" fill="#FFFFFC"/>
		<circle cx="7" cy="1" r="0.3" fill="#FFFFFC"/>
		<circle cx="0" cy="2" r="0.3" fill="#FFFFFC"/>
		<circle cx="2" cy="2" r="0.3" fill="#FFFFFC"/>
		<circle cx="4" cy="2" r="0.3" fill="#FFFFFC"/>
		<circle cx="6" cy="2" r="0.3" fill="#FFFFFC"/>
		<circle cx="1" cy="3" r="0.3" fill="#FFFFFC"/>
		<circle cx="3" cy="3" r="0.3" fill="#FFFFFC"/>
		<circle cx="5" cy="3" r="0.3" fill="#FFFFFC"/>
		<circle cx="7" cy="3" r="0.3" fill="#FFFFFC"/>
		<circle cx="0" cy="4" r="0.3" fill="#FFFFFC"/>
		<circle cx="2" cy="4" r="0.3" fill="#FFFFFC"/>
		<circle cx="4" cy="4" r="0.3" fill="#FFFFFC"/>
		<circle cx="6" cy="4" r="0.3" fill="#FFFFFC"/>
		<circle cx="1" cy="5" r="0.3" fill="#FFFFFC"/>
		<circle cx="3" cy="5" r="0.3" fill="#FFFFFC"/>
		<circle cx="5" cy="5" r="0.3" fill="#FFFFFC"/>
		<circle cx="7" cy="5" r="0.3" fill="#FFFFFC"/>
		<circle cx="0" cy="6" r="0.3" fill="#FFFFFC"/>
		<circle cx="2" cy="6" r="0.3" fill="#FFFFFC"/>
		<circle cx="4" cy="6" r="0.3" fill="#FFFFFC"/>
		<circle cx="6" cy="6" r="0.3" fill="#FFFFFC"/>
		<circle cx="1" cy="7" r="0.3" fill="#FFFFFC"/>
		<circle cx="3" cy="7" r="0.3" fill="#FFFFFC"/>
		<circle cx="5" cy="7" r="0.3" fill="#FFFFFC"/>
		<circle cx="7" cy="7" r="0.3" fill="#FFFFFC"/>
				<circle cx="0" cy="0" r="0.3" fill="#FFFFFC"/>
		<circle cx="2" cy="0" r="0.3" fill="#FFFFFC"/>
		<circle cx="4" cy="0" r="0.3" fill="#FFFFFC"/>
		<circle cx="6" cy="0" r="0.3" fill="#FFFFFC"/>
		<circle cx="1" cy="1" r="0.3" fill="#FFFFFC"/>
		<circle cx="3" cy="1" r="0.3" fill="#FFFFFC"/>
		<circle cx="5" cy="1" r="0.3" fill="#FFFFFC"/>
		<circle cx="7" cy="1" r="0.3" fill="#FFFFFC"/>
		<circle cx="0" cy="2" r="0.3" fill="#FFFFFC"/>
		<circle cx="2" cy="2" r="0.3" fill="#FFFFFC"/>
		<circle cx="4" cy="2" r="0.3" fill="#FFFFFC"/>
		<circle cx="6" cy="2" r="0.3" fill="#FFFFFC"/>
		<circle cx="1" cy="3" r="0.3" fill="#FFFFFC"/>
		<circle cx="3" cy="3" r="0.3" fill="#FFFFFC"/>
		<circle cx="5" cy="3" r="0.3" fill="#FFFFFC"/>
		<circle cx="7" cy="3" r="0.3" fill="#FFFFFC"/>
		<circle cx="0" cy="4" r="0.3" fill="#FFFFFC"/>
		<circle cx="2" cy="4" r="0.3" fill="#FFFFFC"/>
		<circle cx="4" cy="4" r="0.3" fill="#FFFFFC"/>
		<circle cx="6" cy="4" r="0.3" fill="#FFFFFC"/>
		<circle cx="1" cy="5" r="0.3" fill="#FFFFFC"/>
		<circle cx="3" cy="5" r="0.3" fill="#FFFFFC"/>
		<circle cx="5" cy="5" r="0.3" fill="#FFFFFC"/>
		<circle cx="7" cy="5" r="0.3" fill="#FFFFFC"/>
		<circle cx="0" cy="6" r="0.3" fill="#FFFFFC"/>
		<circle cx="2" cy="6" r="0.3" fill="#FFFFFC"/>
		<circle cx="4" cy="6" r="0.3" fill="#FFFFFC"/>
		<circle cx="6" cy="6" r="0.3" fill="#FFFFFC"/>
		<circle cx="1" cy="7" r="0.3" fill="#FFFFFC"/>
		<circle cx="3" cy="7" r="0.3" fill="#FFFFFC"/>
		<circle cx="5" cy="7" r="0.3" fill="#FFFFFC"/>
		<circle cx="7" cy="7" r="0.3" fill="#FFFFFC"/>
	</g>
</svg>